dataset
version=1
nRows=22
nColumns=39
inDegrees=no
endheader
time	sternoclavicular_r2	sternoclavicular_r3	unrotscap_r3	unrotscap_r2	acromioclavicular_r2	acromioclavicular_r3	acromioclavicular_r1	unrothum_r1	unrothum_r3	unrothum_r2	elv_angle	shoulder_elv	shoulder1_r2	shoulder_rot	elbow_flexion	pro_sup	deviation	flexion	cmc_abduction	cmc_flexion	mp_flexion	ip_flexion	mcp2_flexion	mcp2_abduction	pm2_flexion	md2_flexion	mcp3_flexion	mcp3_abduction	pm3_flexion	md3_flexion	mcp4_flexion	mcp4_abduction	pm4_flexion	md4_flexion	mcp5_flexion	mcp5_abduction	pm5_flexion	md5_flexion
1.010101	-0.041782	-0.285791	0.080004	0.135913	0.037573	0.480413	0.206318	0.246138	0.427913	-0.042958	0.116032	0.027437	0.146525	0.146525	2.540823	1.376624	0.000000	0.000000	0.000000	0.000000	0.000000	0.000000	0.000000	0.000000	0.000000	0.000000	0.000000	0.000000	0.000000	0.000000	0.000000	0.000000	0.000000	0.000000	0.000000	0.000000	0.000000	0.000000
1.030303	-0.037008	-0.291948	0.086264	0.133455	0.036774	0.472811	0.194521	0.232806	0.418432	-0.037846	0.116086	0.027437	0.146525	0.146525	2.562548	1.417393	0.000000	0.000000	0.000000	0.000000	0.000000	0.000000	0.000000	0.000000	0.000000	0.000000	0.000000	0.000000	0.000000	0.000000	0.000000	0.000000	0.000000	0.000000	0.000000	0.000000	0.000000	0.000000
1.050505	-0.032080	-0.300537	0.096252	0.130187	0.035562	0.463291	0.176840	0.216658	0.403958	-0.030974	0.115873	0.027437	0.146525	0.146525	2.578533	1.458017	0.000000	0.000000	0.000000	0.000000	0.000000	0.000000	0.000000	0.000000	0.000000	0.000000	0.000000	0.000000	0.000000	0.000000	0.000000	0.000000	0.000000	0.000000	0.000000	0.000000	0.000000	0.000000
1.070707	-0.026490	-0.311123	0.110129	0.126265	0.034092	0.451969	0.153038	0.196882	0.385931	-0.021799	0.116152	0.027437	0.146525	0.146525	2.584960	1.505861	0.000000	0.000000	0.000000	0.000000	0.000000	0.000000	0.000000	0.000000	0.000000	0.000000	0.000000	0.000000	0.000000	0.000000	0.000000	0.000000	0.000000	0.000000	0.000000	0.000000	0.000000	0.000000
1.090909	-0.020094	-0.321615	0.125897	0.121002	0.031262	0.440828	0.126906	0.170996	0.372061	-0.012254	0.116852	0.027437	0.146525	0.146525	2.574172	1.545050	0.000000	0.000000	0.000000	0.000000	0.000000	0.000000	0.000000	0.000000	0.000000	0.000000	0.000000	0.000000	0.000000	0.000000	0.000000	0.000000	0.000000	0.000000	0.000000	0.000000	0.000000	0.000000
1.111111	-0.014010	-0.331570	0.143253	0.114765	0.026965	0.432227	0.100434	0.143319	0.362409	-0.003733	0.117413	0.027437	0.146525	0.146525	2.535964	1.583956	0.000000	0.000000	0.000000	0.000000	0.000000	0.000000	0.000000	0.000000	0.000000	0.000000	0.000000	0.000000	0.000000	0.000000	0.000000	0.000000	0.000000	0.000000	0.000000	0.000000	0.000000	0.000000
1.131313	-0.009056	-0.340315	0.160831	0.109343	0.023057	0.425864	0.075123	0.119588	0.354031	0.004185	0.118370	0.027437	0.146525	0.146525	2.462426	1.606198	0.000000	0.000000	0.000000	0.000000	0.000000	0.000000	0.000000	0.000000	0.000000	0.000000	0.000000	0.000000	0.000000	0.000000	0.000000	0.000000	0.000000	0.000000	0.000000	0.000000	0.000000	0.000000
1.151515	-0.006129	-0.347047	0.176526	0.107114	0.021855	0.422007	0.054007	0.102258	0.348130	0.012551	0.121594	0.027437	0.146525	0.146525	2.352746	1.628860	0.000000	0.000000	0.000000	0.000000	0.000000	0.000000	0.000000	0.000000	0.000000	0.000000	0.000000	0.000000	0.000000	0.000000	0.000000	0.000000	0.000000	0.000000	0.000000	0.000000	0.000000	0.000000
1.171717	-0.005580	-0.350259	0.186464	0.108820	0.024242	0.419668	0.041224	0.089515	0.347717	0.021989	0.128301	0.027437	0.146525	0.146525	2.213122	1.634965	0.000000	0.000000	0.000000	0.000000	0.000000	0.000000	0.000000	0.000000	0.000000	0.000000	0.000000	0.000000	0.000000	0.000000	0.000000	0.000000	0.000000	0.000000	0.000000	0.000000	0.000000	0.000000
1.191919	-0.006835	-0.350264	0.189560	0.114528	0.030346	0.418427	0.037819	0.080136	0.353292	0.032669	0.138665	0.027437	0.146525	0.146525	2.055305	1.646211	0.000000	0.000000	0.000000	0.000000	0.000000	0.000000	0.000000	0.000000	0.000000	0.000000	0.000000	0.000000	0.000000	0.000000	0.000000	0.000000	0.000000	0.000000	0.000000	0.000000	0.000000	0.000000
1.212121	-0.008709	-0.348029	0.186374	0.122960	0.039008	0.417661	0.042528	0.073022	0.363430	0.043595	0.151110	0.027437	0.146525	0.146525	1.891150	1.642088	0.000000	0.000000	0.000000	0.000000	0.000000	0.000000	0.000000	0.000000	0.000000	0.000000	0.000000	0.000000	0.000000	0.000000	0.000000	0.000000	0.000000	0.000000	0.000000	0.000000	0.000000	0.000000
1.232323	-0.010054	-0.345218	0.180025	0.133097	0.049152	0.417896	0.051801	0.068904	0.375093	0.053921	0.164057	0.027437	0.146525	0.146525	1.732561	1.648207	0.000000	0.000000	0.000000	0.000000	0.000000	0.000000	0.000000	0.000000	0.000000	0.000000	0.000000	0.000000	0.000000	0.000000	0.000000	0.000000	0.000000	0.000000	0.000000	0.000000	0.000000	0.000000
1.252525	-0.010163	-0.342534	0.172149	0.143404	0.059508	0.417878	0.062736	0.066776	0.385606	0.063142	0.175987	0.027437	0.146525	0.146525	1.587075	1.639982	0.000000	0.000000	0.000000	0.000000	0.000000	0.000000	0.000000	0.000000	0.000000	0.000000	0.000000	0.000000	0.000000	0.000000	0.000000	0.000000	0.000000	0.000000	0.000000	0.000000	0.000000	0.000000
1.272727	-0.009024	-0.340953	0.165148	0.153313	0.069594	0.417326	0.072280	0.066355	0.392855	0.071538	0.186447	0.027437	0.146525	0.146525	1.460052	1.646505	0.000000	0.000000	0.000000	0.000000	0.000000	0.000000	0.000000	0.000000	0.000000	0.000000	0.000000	0.000000	0.000000	0.000000	0.000000	0.000000	0.000000	0.000000	0.000000	0.000000	0.000000	0.000000
1.292929	-0.007229	-0.340135	0.159183	0.161995	0.078706	0.415550	0.079608	0.066148	0.397008	0.078969	0.194995	0.027437	0.146525	0.146525	1.353123	1.638628	0.000000	0.000000	0.000000	0.000000	0.000000	0.000000	0.000000	0.000000	0.000000	0.000000	0.000000	0.000000	0.000000	0.000000	0.000000	0.000000	0.000000	0.000000	0.000000	0.000000	0.000000	0.000000
1.313131	-0.005358	-0.340221	0.155267	0.169265	0.086600	0.412906	0.083718	0.066868	0.397467	0.085210	0.201359	0.027437	0.146525	0.146525	1.267565	1.649291	0.000000	0.000000	0.000000	0.000000	0.000000	0.000000	0.000000	0.000000	0.000000	0.000000	0.000000	0.000000	0.000000	0.000000	0.000000	0.000000	0.000000	0.000000	0.000000	0.000000	0.000000	0.000000
1.333333	-0.003672	-0.340543	0.152090	0.174320	0.092622	0.408450	0.085550	0.067707	0.394723	0.089633	0.204940	0.027437	0.146525	0.146525	1.200912	1.644923	0.000000	0.000000	0.000000	0.000000	0.000000	0.000000	0.000000	0.000000	0.000000	0.000000	0.000000	0.000000	0.000000	0.000000	0.000000	0.000000	0.000000	0.000000	0.000000	0.000000	0.000000	0.000000
1.353535	-0.002154	-0.341338	0.149924	0.178028	0.097432	0.403291	0.085615	0.069720	0.389469	0.092768	0.206724	0.027437	0.146525	0.146525	1.149852	1.662909	0.000000	0.000000	0.000000	0.000000	0.000000	0.000000	0.000000	0.000000	0.000000	0.000000	0.000000	0.000000	0.000000	0.000000	0.000000	0.000000	0.000000	0.000000	0.000000	0.000000	0.000000	0.000000
1.373737	-0.000879	-0.341660	0.147119	0.180935	0.101477	0.397849	0.086106	0.071836	0.384309	0.095185	0.207849	0.027437	0.146525	0.146525	1.106367	1.665477	0.000000	0.000000	0.000000	0.000000	0.000000	0.000000	0.000000	0.000000	0.000000	0.000000	0.000000	0.000000	0.000000	0.000000	0.000000	0.000000	0.000000	0.000000	0.000000	0.000000	0.000000	0.000000
1.393939	0.000018	-0.341826	0.144501	0.184139	0.105590	0.393604	0.087091	0.074620	0.380154	0.097799	0.209608	0.027437	0.146525	0.146525	1.066813	1.695172	0.000000	0.000000	0.000000	0.000000	0.000000	0.000000	0.000000	0.000000	0.000000	0.000000	0.000000	0.000000	0.000000	0.000000	0.000000	0.000000	0.000000	0.000000	0.000000	0.000000	0.000000	0.000000
1.414141	0.000346	-0.340826	0.140724	0.187461	0.109701	0.389917	0.089659	0.076455	0.378377	0.100921	0.212373	0.027437	0.146525	0.146525	1.029044	1.709756	0.000000	0.000000	0.000000	0.000000	0.000000	0.000000	0.000000	0.000000	0.000000	0.000000	0.000000	0.000000	0.000000	0.000000	0.000000	0.000000	0.000000	0.000000	0.000000	0.000000	0.000000	0.000000
1.434343	0.000128	-0.339184	0.137089	0.191301	0.114141	0.387262	0.092657	0.078302	0.377955	0.104982	0.216450	0.027437	0.146525	0.146525	0.995087	1.757317	0.000000	0.000000	0.000000	0.000000	0.000000	0.000000	0.000000	0.000000	0.000000	0.000000	0.000000	0.000000	0.000000	0.000000	0.000000	0.000000	0.000000	0.000000	0.000000	0.000000	0.000000	0.000000
